<?xml version="1.0" encoding="UTF-8" standalone="no"?>
<svg width="12px" height="21px" viewBox="0 0 12 21" version="1.1" xmlns="http://www.w3.org/2000/svg" xmlns:xlink="http://www.w3.org/1999/xlink" xmlns:sketch="http://www.bohemiancoding.com/sketch/ns">
    <!-- Generator: Sketch 3.3.2 (12043) - http://www.bohemiancoding.com/sketch -->
    <title>Path Copy</title>
    <desc>Created with Sketch.</desc>
    <defs></defs>
    <g id="Richard-DeSchantz" stroke="none" stroke-width="1" fill="none" fill-rule="evenodd" sketch:type="MSPage">
        <g id="Logo" sketch:type="MSArtboardGroup" transform="translate(-140.000000, -138.000000)" fill="#FFFFFF">
            <path d="M140.008534,138.99 L140.008534,159 L142.228534,159 L142.228534,150.24 L142.798534,150.24 L148.888534,159 L151.588534,159 L145.228534,150.06 C148.258534,149.85 150.268534,147.6 150.268534,144.54 C150.268534,142.41 149.248534,140.88 148.078534,140.1 C146.578534,139.08 144.568534,138.99 143.218534,138.99 L140.008534,138.99 Z M142.228534,141.09 L143.578534,141.09 C144.538534,141.09 145.558534,141.15 146.458534,141.66 C147.718534,142.38 148.048534,143.49 148.048534,144.6 C148.048534,146.94 146.398534,148.26 143.638534,148.26 L142.228534,148.26 L142.228534,141.09 Z" id="Path-Copy" sketch:type="MSShapeGroup"></path>
        </g>
    </g>
</svg>