<?xml version="1.0" encoding="UTF-8" standalone="no"?>
<svg width="200px" height="38px" viewBox="0 0 200 38" version="1.1" xmlns="http://www.w3.org/2000/svg" xmlns:xlink="http://www.w3.org/1999/xlink" xmlns:sketch="http://www.bohemiancoding.com/sketch/ns">
    <!-- Generator: Sketch 3.3.2 (12043) - http://www.bohemiancoding.com/sketch -->
    <title>logo</title>
    <desc>Created with Sketch.</desc>
    <defs></defs>
    <g id="Richard-DeSchantz" stroke="none" stroke-width="1" fill="none" fill-rule="evenodd" sketch:type="MSPage">
        <g id="Logo" sketch:type="MSArtboardGroup" transform="translate(-46.000000, -100.000000)" fill="#FFFFFF">
            <g id="logo" sketch:type="MSLayerGroup" transform="translate(46.000000, 100.000000)">
                <path d="M96.3959532,0.646284665 C92.1095007,7.72946843 95.7806098,13.5165446 95.7806098,13.5165446 C95.7806098,13.5165446 95.6521739,13.5165448 96.9404188,13.5165448 C96.9404188,17.3913042 95.3301127,22.5616405 95.3301127,22.5616405 C95.6521739,23.2071782 96.6893566,23.2071786 97.1095688,23.2071786 C97.5288304,23.2071786 97.9066023,22.8916211 97.9066023,22.5616409 L97.9066023,16.0733381 L97.9066023,0.64628466 C97.9066023,0.391878128 97.5164375,0.097994788 97.2122114,0.0126937744 C96.9108374,-0.0718589848 96.5915056,0.323142424 96.3959532,0.646284665 Z" id="Path" sketch:type="MSShapeGroup"></path>
                <path d="M88.5668277,0.322061192 L88.8888887,9.65741475 C88.8888887,9.65741475 88.7138972,10.3059581 87.7477136,10.3059581 C86.78153,10.3059581 86.6344606,9.65741475 86.6344606,9.65741475 L86.9565217,0.322061192 L86.3123993,0.644122383 L85.3462158,8.69565217 L85.3462158,9.03049414 C85.3462158,9.83293314 85.7307657,10.4832559 86.3123994,10.9500805 C88.2297586,13.1141322 86.6344606,19.4430751 86.6344606,19.9677939 C86.6358681,20.54802 86.6344606,22.1953781 86.6344606,22.1953781 C86.6337262,22.7634868 87.2009633,23.205771 87.7477136,23.2071786 C88.2951983,23.2071786 88.8888887,22.7408432 88.8888887,22.1953781 C88.8866856,22.176284 88.8888887,20.6419601 88.8888887,19.9677939 C88.8874812,19.3598447 87.3621946,12.8901203 89.2109499,11.0037277 C89.6703083,10.5646873 90.1316629,9.69211465 90.1771336,9.03049414 C90.18001,8.98392183 90.1771336,8.69565217 90.1771336,8.69565217 L89.2109501,0.644122383 L88.5668277,0.322061192 Z" id="Shape-Copy" sketch:type="MSShapeGroup"></path>
                <path d="M3.73879192,12.1519506 L7.15589046,16.8558227 L5.11849907,16.8558227 L1.96590397,12.3378179 L1.66565682,12.3378179 L1.66565682,16.8558227 L0,16.8558227 L0,5.81816544 L1.95160649,5.81816544 C3.40995709,5.81816544 4.46319451,6.09219779 5.11135033,6.64027073 C5.82622808,7.25029974 6.18366159,8.05571659 6.18366159,9.05654543 C6.18366159,9.8381451 5.95966992,10.5101201 5.51167987,11.0724906 C5.06368981,11.6348611 4.47273307,11.9946775 3.73879192,12.1519506 Z M1.66565682,10.8866233 L2.19466371,10.8866233 C3.7721606,10.8866233 4.56089722,10.2837521 4.56089722,9.07799166 C4.56089722,7.94848482 3.79360661,7.38373987 2.25900238,7.38373987 L1.66565682,7.38373987 L1.66565682,10.8866233 Z" id="Path" sketch:type="MSShapeGroup"></path>
                <path d="M13.3531828,5.81816544 L13.3531828,16.8558227 L11.687526,16.8558227 L11.687526,5.81816544 L13.3531828,5.81816544 Z" id="Path" sketch:type="MSShapeGroup"></path>
                <path d="M27.0352077,6.411511 L27.0352077,8.38456371 C26.0725057,7.57913479 25.0764577,7.17642636 24.0470337,7.17642636 C22.912761,7.17642636 21.9572221,7.58390057 21.1803883,8.3988612 C20.3987886,9.20905598 20.0079946,10.2003382 20.0079946,11.3727378 C20.0079946,12.5308397 20.3987886,13.5078246 21.1803883,14.3037219 C21.9619879,15.0996191 22.9199098,15.4975617 24.0541824,15.4975617 C24.6403822,15.4975617 25.1384062,15.4022461 25.5482695,15.2116121 C25.7770303,15.116295 26.0141279,14.987619 26.2595693,14.82558 C26.5050106,14.663541 26.7635542,14.4681441 27.0352077,14.2393832 L27.0352077,16.2481796 C26.0820374,16.7867208 25.0812236,17.0559874 24.0327362,17.0559874 C22.4552393,17.0559874 21.1089064,16.5055398 19.9936971,15.4046281 C18.8832537,14.2941846 18.3280403,12.9550004 18.3280403,11.3870352 C18.3280403,9.981109 18.7927039,8.72770882 19.722045,7.62679709 C20.8658494,6.27806108 22.3456241,5.60370318 24.1614136,5.60370318 C25.1527107,5.60370318 26.1106325,5.87296976 27.0352077,6.411511 L27.0352077,6.411511 Z" id="Path" sketch:type="MSShapeGroup"></path>
                <path d="M33.983118,10.1360054 L38.74418,10.1360054 L38.74418,5.81816544 L40.4098368,5.81816544 L40.4098368,16.8558227 L38.74418,16.8558227 L38.74418,11.7015799 L33.983118,11.7015799 L33.983118,16.8558227 L32.3174612,16.8558227 L32.3174612,5.81816544 L33.983118,5.81816544 L33.983118,10.1360054 Z" id="Path" sketch:type="MSShapeGroup"></path>
                <path d="M52.4119074,14.1750445 L47.6865891,14.1750445 L46.4570056,16.8558227 L44.6626714,16.8558227 L50.1243101,5.12473749 L55.3929327,16.8558227 L53.5700036,16.8558227 L52.4119074,14.1750445 Z M51.7327769,12.6094701 L50.0957151,8.85638067 L48.3800171,12.6094701 L51.7327769,12.6094701 Z" id="Path" sketch:type="MSShapeGroup"></path>
                <path d="M63.3845592,12.1519506 L66.8016578,16.8558227 L64.7642664,16.8558227 L61.6116713,12.3378179 L61.3114241,12.3378179 L61.3114241,16.8558227 L59.6457673,16.8558227 L59.6457673,5.81816544 L61.5973738,5.81816544 C63.0557244,5.81816544 64.1089618,6.09219779 64.7571176,6.64027073 C65.4719954,7.25029974 65.8294289,8.05571659 65.8294289,9.05654543 C65.8294289,9.8381451 65.6054372,10.5101201 65.1574472,11.0724906 C64.7094571,11.6348611 64.1185004,11.9946775 63.3845592,12.1519506 Z M61.3114241,10.8866233 L61.840431,10.8866233 C63.4179279,10.8866233 64.2066645,10.2837521 64.2066645,9.07799166 C64.2066645,7.94848482 63.4393739,7.38373987 61.9047697,7.38373987 L61.3114241,7.38373987 L61.3114241,10.8866233 Z" id="Path" sketch:type="MSShapeGroup"></path>
                <path d="M71.3332933,16.8558227 L71.3332933,5.81816544 L73.6494856,5.81816544 C74.759929,5.81816544 75.6368326,5.92777838 76.2802226,6.14700755 C76.9712711,6.36147088 77.5979711,6.72605306 78.1603416,7.24076504 C79.2993802,8.2797207 79.8688909,9.64511671 79.8688909,11.336994 C79.8688909,13.0336372 79.2755513,14.4061819 78.0888542,15.4546693 C77.4931228,15.978913 76.8688056,16.3434951 76.2158839,16.5484268 C75.6058549,16.7533584 74.7408658,16.8558227 73.6208906,16.8558227 L71.3332933,16.8558227 Z M72.9989501,15.2902482 L73.749568,15.2902482 C74.4978067,15.2902482 75.119741,15.2116128 75.6153896,15.0543397 C76.1110382,14.8875349 76.5590215,14.6230341 76.959353,14.2608294 C77.7790795,13.5125907 78.1889366,12.5379887 78.1889366,11.336994 C78.1889366,10.1264677 77.7838453,9.14471701 76.9736505,8.39171245 C76.2444752,7.71972737 75.1697918,7.38373987 73.749568,7.38373987 L72.9989501,7.38373987 L72.9989501,15.2902482 Z" id="Path" sketch:type="MSShapeGroup"></path>
                <path d="M104.111446,16.8558227 L104.111446,5.81816544 L106.427638,5.81816544 C107.538081,5.81816544 108.414985,5.92777838 109.058375,6.14700755 C109.749423,6.36147088 110.376123,6.72605306 110.938494,7.24076504 C112.077532,8.2797207 112.647043,9.64511671 112.647043,11.336994 C112.647043,13.0336372 112.053704,14.4061819 110.867007,15.4546693 C110.271275,15.978913 109.646958,16.3434951 108.994036,16.5484268 C108.384007,16.7533584 107.519018,16.8558227 106.399043,16.8558227 L104.111446,16.8558227 Z M105.777102,15.2902482 L106.52772,15.2902482 C107.275959,15.2902482 107.897893,15.2116128 108.393542,15.0543397 C108.88919,14.8875349 109.337174,14.6230341 109.737505,14.2608294 C110.557232,13.5125907 110.967089,12.5379887 110.967089,11.336994 C110.967089,10.1264677 110.561998,9.14471701 109.751803,8.39171245 C109.022628,7.71972737 107.947944,7.38373987 106.52772,7.38373987 L105.777102,7.38373987 L105.777102,15.2902482 Z" id="Path" sketch:type="MSShapeGroup"></path>
                <path d="M123.70548,7.38373987 L119.280409,7.38373987 L119.280409,10.0359231 L123.576803,10.0359231 L123.576803,11.6014975 L119.280409,11.6014975 L119.280409,15.2902482 L123.70548,15.2902482 L123.70548,16.8558227 L117.614752,16.8558227 L117.614752,5.81816544 L123.70548,5.81816544 L123.70548,7.38373987 Z" id="Path" sketch:type="MSShapeGroup"></path>
                <path d="M135.006974,7.46237603 L133.655862,8.2630351 C133.403272,7.82457675 133.1626,7.53862994 132.933839,7.4051861 C132.695546,7.25267884 132.388153,7.17642636 132.011651,7.17642636 C131.549363,7.17642636 131.165718,7.30748532 130.860704,7.56960716 C130.555689,7.82696315 130.403184,8.1510362 130.403184,8.54183603 C130.403184,9.08037727 130.80351,9.51406326 131.604173,9.84290702 L132.705079,10.2932778 C133.601059,10.6554825 134.256354,11.0975086 134.670983,11.6193693 C135.085612,12.1412301 135.292924,12.7810361 135.292924,13.5388065 C135.292924,14.5539329 134.954553,15.3927102 134.277802,16.0551636 C133.596285,16.7223828 132.750359,17.0559874 131.739999,17.0559874 C130.782063,17.0559874 129.990943,16.7724235 129.366617,16.2052872 C128.751822,15.6381508 128.368177,14.8398826 128.215669,13.8104587 L129.902772,13.4387241 C129.979026,14.0868799 130.112468,14.5348633 130.303102,14.7826876 C130.646243,15.2592727 131.14665,15.4975617 131.804338,15.4975617 C132.323815,15.4975617 132.755119,15.3236107 133.09826,14.9757036 C133.441401,14.6277964 133.612969,14.1869617 133.612969,13.6531864 C133.612969,13.438723 133.583183,13.2421346 133.52361,13.0634152 C133.464037,12.8846957 133.371104,12.7202763 133.244809,12.570152 C133.118514,12.4200277 132.955286,12.2794371 132.75512,12.1483762 C132.554954,12.0173153 132.316665,11.8922136 132.040246,11.7730673 L130.975084,11.3298453 C129.464309,10.6912212 128.708932,9.75712827 128.708932,8.52753855 C128.708932,7.69828036 129.025857,7.00485935 129.659715,6.44725471 C130.293573,5.88488421 131.08231,5.60370318 132.025949,5.60370318 C133.298431,5.60370318 134.292096,6.2232546 135.006974,7.46237603 L135.006974,7.46237603 Z" id="Path" sketch:type="MSShapeGroup"></path>
                <path d="M141.840504,10.1360054 L146.601566,10.1360054 L146.601566,5.81816544 L148.267223,5.81816544 L148.267223,16.8558227 L146.601566,16.8558227 L146.601566,11.7015799 L141.840504,11.7015799 L141.840504,16.8558227 L140.174847,16.8558227 L140.174847,5.81816544 L141.840504,5.81816544 L141.840504,10.1360054 Z" id="Path" sketch:type="MSShapeGroup"></path>
                <path d="M160.269294,14.1750445 L155.543975,14.1750445 L154.314392,16.8558227 L152.520058,16.8558227 L157.981696,5.12473749 L163.250319,16.8558227 L161.42739,16.8558227 L160.269294,14.1750445 Z M159.590163,12.6094701 L157.953101,8.85638067 L156.237403,12.6094701 L159.590163,12.6094701 Z" id="Path" sketch:type="MSShapeGroup"></path>
                <path d="M167.503154,16.8558227 L167.503154,5.06754755 L175.552637,13.4887653 L175.552637,5.81816544 L177.218294,5.81816544 L177.218294,17.5278044 L169.16881,9.12803285 L169.16881,16.8558227 L167.503154,16.8558227 Z" id="Path" sketch:type="MSShapeGroup"></path>
                <path d="M185.781819,7.38373987 L185.781819,16.8558227 L184.116163,16.8558227 L184.116163,7.38373987 L181.578359,7.38373987 L181.578359,5.81816544 L188.312474,5.81816544 L188.312474,7.38373987 L185.781819,7.38373987 Z" id="Path" sketch:type="MSShapeGroup"></path>
                <path d="M194.581254,15.2902482 L199.878471,15.2902482 L199.878471,16.8558227 L191.843286,16.8558227 L197.262032,7.38373987 L192.72973,7.38373987 L192.72973,5.81816544 L200,5.81816544 L194.581254,15.2902482 Z" id="Path" sketch:type="MSShapeGroup"></path>
                <path d="M51.5940111,31.236715 L48.2510159,31.236715 L48.2510159,37.6811594 L51.5940111,37.6811594 L51.5940111,37.0048309 L48.9659917,37.0048309 L48.9659917,34.5024155 L51.5167164,34.5024155 L51.5167164,33.826087 L48.9659917,33.826087 L48.9659917,31.9130435 L51.5940111,31.9130435 L51.5940111,31.236715 Z" id="Path" sketch:type="MSShapeGroup"></path>
                <path d="M58.6117244,32.1352657 C58.4667969,31.8550725 58.2445747,31.5942029 57.9837051,31.4202899 C57.6648645,31.2077295 57.3460239,31.1304348 56.9498887,31.1304348 C55.9064104,31.1304348 55.1431254,31.7971014 55.1431254,32.7922705 C55.1431254,33.2753623 55.3073766,33.5748792 55.5875698,33.8454106 C55.8774249,34.1256039 56.1962655,34.2608696 56.4474732,34.3768116 L57.0271834,34.647343 C57.3653476,34.8019324 57.6165553,34.9178744 57.8001302,35.0917874 C58.0320143,35.3043478 58.1189708,35.5555556 58.1189708,35.8454106 C58.1189708,36.4927536 57.7035119,37.1207729 56.8242848,37.1207729 C56.4957824,37.1207729 56.1769418,37.0434783 55.8967486,36.763285 C55.7131737,36.5700483 55.5585843,36.2801932 55.5102751,35.942029 L54.814623,36.1352657 C54.9015795,36.5217391 55.0948162,36.9661836 55.4136568,37.2753623 C55.8581012,37.7101449 56.3895022,37.7971014 56.814623,37.7971014 C57.9740433,37.7971014 58.8532703,37.0048309 58.8532703,35.8164251 C58.8532703,35.352657 58.7180046,34.9758454 58.3895022,34.647343 C58.1189708,34.3768116 57.7711447,34.2028986 57.3943331,34.0386473 L56.7759756,33.7681159 C56.5344297,33.6618357 56.2928838,33.5555556 56.0996471,33.3623188 C55.9257341,33.1980676 55.8581012,33.0531401 55.8581012,32.8019324 C55.8581012,32.2028986 56.3025457,31.8067633 56.9402268,31.8067633 C57.3073766,31.8067633 57.5392606,31.9323671 57.6648645,32.0289855 C57.809792,32.1449275 57.9547196,32.3381643 58.0416761,32.5120773 L58.6117244,32.1352657 Z" id="Path" sketch:type="MSShapeGroup"></path>
                <path d="M65.1656697,31.9130435 L65.1656697,31.236715 L61.320259,31.236715 L61.320259,31.9130435 L62.8854764,31.9130435 L62.8854764,37.6811594 L63.6004523,37.6811594 L63.6004523,31.9130435 L65.1656697,31.9130435 Z" id="Path" sketch:type="MSShapeGroup"></path>
                <path d="M72.2606777,37.6811594 L73.0529482,37.6811594 L70.1640594,30.9275362 L67.1978758,37.6811594 L67.9901463,37.6811594 L68.7630932,35.8647343 L71.5070545,35.8647343 L72.2606777,37.6811594 Z M69.0432864,35.1884058 L70.1447357,32.6086957 L71.2268613,35.1884058 L69.0432864,35.1884058 Z" id="Path" sketch:type="MSShapeGroup"></path>
                <path d="M76.930565,31.236715 L76.2155892,31.236715 L76.2155892,35.3816425 C76.2155892,35.9227053 76.2735602,36.4444444 76.6213863,36.9275362 C77.0078597,37.4589372 77.6841882,37.7971014 78.5054442,37.7971014 C79.3267003,37.7971014 80.0030288,37.4589372 80.3895022,36.9275362 C80.7373283,36.4444444 80.7952993,35.9227053 80.7952993,35.3816425 L80.7952993,31.236715 L80.0803234,31.236715 L80.0803234,35.1884058 C80.0803234,35.7294686 80.0803234,36.3188406 79.5682462,36.7536232 C79.3073766,36.9758454 78.8629321,37.1207729 78.5054442,37.1207729 C78.1479563,37.1207729 77.7035119,36.9758454 77.4426423,36.7536232 C76.930565,36.3188406 76.930565,35.7294686 76.930565,35.1884058 L76.930565,31.236715 Z" id="Path" sketch:type="MSShapeGroup"></path>
                <path d="M84.7115634,31.236715 L84.7115634,37.6811594 L85.4265392,37.6811594 L85.4265392,34.8599034 L85.6101141,34.8599034 L87.5714668,37.6811594 L88.441032,37.6811594 L86.3927228,34.8019324 C87.3685682,34.7342995 88.0159112,34.0096618 88.0159112,33.0241546 C88.0159112,32.3381643 87.6874088,31.8454106 87.3105972,31.5942029 C86.8275054,31.2657005 86.1801624,31.236715 85.7453798,31.236715 L84.7115634,31.236715 Z M85.4265392,31.9130435 L85.8613218,31.9130435 C86.1705006,31.9130435 86.499003,31.9323671 86.7888581,32.0966184 C87.1946552,32.3285024 87.3009354,32.6859903 87.3009354,33.0434783 C87.3009354,33.7971014 86.7695344,34.2222222 85.8806455,34.2222222 L85.4265392,34.2222222 L85.4265392,31.9130435 Z" id="Path" sketch:type="MSShapeGroup"></path>
                <path d="M41.2265811,31.236715 L41.2265811,37.6811594 L41.941557,37.6811594 L41.941557,34.8599034 L42.1251318,34.8599034 L44.0864845,37.6811594 L44.9560497,37.6811594 L42.9077405,34.8019324 C43.8835859,34.7342995 44.5309289,34.0096618 44.5309289,33.0241546 C44.5309289,32.3381643 44.2024265,31.8454106 43.8256149,31.5942029 C43.3425231,31.2657005 42.6951801,31.236715 42.2603975,31.236715 L41.2265811,31.236715 Z M41.941557,31.9130435 L42.3763396,31.9130435 C42.6855183,31.9130435 43.0140207,31.9323671 43.3038758,32.0966184 C43.7096729,32.3285024 43.8159531,32.6859903 43.8159531,33.0434783 C43.8159531,33.7971014 43.2845521,34.2222222 42.3956632,34.2222222 L41.941557,34.2222222 L41.941557,31.9130435 Z" id="Path-Copy" sketch:type="MSShapeGroup"></path>
                <path d="M96.125412,37.6811594 L96.9176825,37.6811594 L94.0287937,30.9275362 L91.0626101,37.6811594 L91.8548806,37.6811594 L92.6278275,35.8647343 L95.3717888,35.8647343 L96.125412,37.6811594 Z M92.9080207,35.1884058 L94.00947,32.6086957 L95.0915956,35.1884058 L92.9080207,35.1884058 Z" id="Path" sketch:type="MSShapeGroup"></path>
                <path d="M100.795299,37.6811594 L100.795299,32.705314 L105.819454,37.9710145 L105.819454,31.236715 L105.104478,31.236715 L105.104478,36.2318841 L100.080323,30.9661836 L100.080323,37.6811594 L100.795299,37.6811594 Z" id="Path" sketch:type="MSShapeGroup"></path>
                <path d="M112.885476,31.9130435 L112.885476,31.236715 L109.040066,31.236715 L109.040066,31.9130435 L110.605283,31.9130435 L110.605283,37.6811594 L111.320259,37.6811594 L111.320259,31.9130435 L112.885476,31.9130435 Z" id="Path" sketch:type="MSShapeGroup"></path>
                <path d="M123.935396,35.1207729 L125.848439,35.1207729 C125.829116,35.52657 125.703512,35.8357488 125.58757,36.0386473 C125.22042,36.6859903 124.476459,37.1207729 123.616555,37.1207729 C122.399164,37.1207729 120.998198,36.2318841 120.998198,34.47343 C120.998198,32.9758454 122.080323,31.8067633 123.635879,31.8067633 C124.408826,31.8067633 124.891918,32.0966184 125.201096,32.3478261 C125.413657,32.5217391 125.626217,32.7536232 125.809792,33.0144928 L126.341193,32.531401 C126.157618,32.2801932 125.887087,31.9903382 125.597232,31.7681159 C124.969212,31.2850242 124.244575,31.1304348 123.626217,31.1304348 C121.703512,31.1304348 120.263898,32.589372 120.263898,34.4637681 C120.263898,36.3381643 121.69385,37.7971014 123.606893,37.7971014 C125.085154,37.7971014 125.809792,36.8985507 126.003029,36.6376812 C126.408826,36.0869565 126.621386,35.3140097 126.621386,34.5990338 L126.621386,34.4444444 L123.935396,34.4444444 L123.935396,35.1207729 Z" id="Path" sketch:type="MSShapeGroup"></path>
                <path d="M130.189824,31.236715 L130.189824,37.6811594 L130.9048,37.6811594 L130.9048,34.8599034 L131.088375,34.8599034 L133.049728,37.6811594 L133.919293,37.6811594 L131.870984,34.8019324 C132.846829,34.7342995 133.494172,34.0096618 133.494172,33.0241546 C133.494172,32.3381643 133.16567,31.8454106 132.788858,31.5942029 C132.305766,31.2657005 131.658423,31.236715 131.223641,31.236715 L130.189824,31.236715 Z M130.9048,31.9130435 L131.339583,31.9130435 C131.648761,31.9130435 131.977264,31.9323671 132.267119,32.0966184 C132.672916,32.3285024 132.779196,32.6859903 132.779196,33.0434783 C132.779196,33.7971014 132.247795,34.2222222 131.358906,34.2222222 L130.9048,34.2222222 L130.9048,31.9130435 Z" id="Path" sketch:type="MSShapeGroup"></path>
                <path d="M140.299325,37.7971014 C142.164059,37.7971014 143.651982,36.3768116 143.651982,34.4637681 C143.651982,32.5410628 142.154398,31.1304348 140.299325,31.1304348 C138.444253,31.1304348 136.946668,32.5410628 136.946668,34.4637681 C136.946668,36.3768116 138.434591,37.7971014 140.299325,37.7971014 Z M140.299325,31.8067633 C141.7486,31.8067633 142.917683,32.9855072 142.917683,34.4637681 C142.917683,35.942029 141.7486,37.1207729 140.299325,37.1207729 C138.85005,37.1207729 137.680968,35.942029 137.680968,34.4637681 C137.680968,32.9855072 138.85005,31.8067633 140.299325,31.8067633 Z" id="Path" sketch:type="MSShapeGroup"></path>
                <path d="M147.935396,31.236715 L147.22042,31.236715 L147.22042,35.3816425 C147.22042,35.9227053 147.278391,36.4444444 147.626217,36.9275362 C148.012691,37.4589372 148.689019,37.7971014 149.510275,37.7971014 C150.331531,37.7971014 151.00786,37.4589372 151.394333,36.9275362 C151.742159,36.4444444 151.80013,35.9227053 151.80013,35.3816425 L151.80013,31.236715 L151.085154,31.236715 L151.085154,35.1884058 C151.085154,35.7294686 151.085154,36.3188406 150.573077,36.7536232 C150.312208,36.9758454 149.867763,37.1207729 149.510275,37.1207729 C149.152787,37.1207729 148.708343,36.9758454 148.447473,36.7536232 C147.935396,36.3188406 147.935396,35.7294686 147.935396,35.1884058 L147.935396,31.236715 Z" id="Path" sketch:type="MSShapeGroup"></path>
                <path d="M155.716394,31.236715 L155.716394,37.6811594 L156.43137,37.6811594 L156.43137,34.8792271 L157.059389,34.8792271 C158.527989,34.8792271 159.098037,33.9806763 159.098037,33.0724638 C159.098037,32.6666667 158.982095,32.0966184 158.508665,31.6908213 C158.073882,31.3140097 157.532819,31.236715 156.885476,31.236715 L155.716394,31.236715 Z M156.43137,31.9130435 L156.962771,31.9130435 C157.426539,31.9130435 158.383061,32.0096618 158.383061,33.0338164 C158.383061,33.7777778 157.870984,34.2028986 157.020742,34.2028986 L156.43137,34.2028986 L156.43137,31.9130435 Z" id="Path" sketch:type="MSShapeGroup"></path>
            </g>
        </g>
    </g>
</svg>